<svg width="104" height="146" viewBox="0 0 104 146" fill="none" xmlns="http://www.w3.org/2000/svg">
<path d="M103.402 59.0476C99.0274 48.9028 88.0991 56.9848 83.9092 63.0054C77.1945 71.1768 73.1123 90.3001 71.0877 100.482C70.8017 101.902 69.3924 93.0607 69.0456 91.6539C66.3903 80.8689 62.8657 70.2921 58.511 60.0568C63.1328 43.0716 70.1933 26.4045 73.6508 8.97233C75.8705 0.963123 67.2158 -3.11615 61.7936 2.83146C57.2141 9.488 57.2834 18.3133 55.7369 26.0119C54.8928 32.3682 55.4885 46.0034 55.4106 52.4024C55.3931 53.8179 52.4297 47.017 51.7753 45.7575C48.7129 39.8777 58.3546 56.823 55.1643 51.9781C54.5344 50.1493 42.0223 27.8375 41.4904 27.0925C32.9564 15.7781 20.6531 5.7769 6.45774 2.78695C3.20503 2.55326 0.193803 4.79382 0.0581055 8.23515C0.170228 18.12 10.1638 23.9259 17.7997 28.4009C26.3915 33.3262 35.0296 38.3035 43.9813 42.5402C52.9241 55.3306 58.0573 71.4238 62.761 86.391C63.1477 87.7635 68.015 107.651 67.0453 106.597C62.3502 101.494 51.0388 77.4579 46.3457 72.3548C42.9742 68.6888 39.599 65.0234 36.2239 61.3536C33.7583 58.673 30.7623 53.939 26.4691 55.906C18.7582 60.6991 25.2067 72.1159 29.1336 77.581C40.6751 92.5799 54.4234 105.884 68.6418 118.391C70.5651 126.443 70.0036 135.361 70.1885 143.715C70.1359 146.762 74.9238 146.762 74.9756 143.715C75.0673 138.001 74.9094 132.291 74.5196 126.596C74.4241 125.887 73.3943 111.115 73.7396 110.59C82.518 96.149 105.006 75.0206 103.402 59.0476Z" fill="black"/>
</svg>
