<svg width="28" height="28" viewBox="0 0 28 28" fill="none" xmlns="http://www.w3.org/2000/svg">
<path fill-rule="evenodd" clip-rule="evenodd" d="M0.666504 5.90365C0.666504 4.48916 1.22841 3.1326 2.2286 2.13241C3.2288 1.13222 4.58535 0.570313 5.99984 0.570312H21.9998C23.4143 0.570313 24.7709 1.13222 25.7711 2.13241C26.7713 3.1326 27.3332 4.48916 27.3332 5.90365V21.9036C27.3332 23.3181 26.7713 24.6747 25.7711 25.6749C24.7709 26.6751 23.4143 27.237 21.9998 27.237H5.99984C4.58535 27.237 3.2288 26.6751 2.2286 25.6749C1.22841 24.6747 0.666504 23.3181 0.666504 21.9036V5.90365ZM5.99984 3.23698C5.29259 3.23698 4.61432 3.51793 4.11422 4.01803C3.61412 4.51812 3.33317 5.1964 3.33317 5.90365V21.9036C3.33317 22.6109 3.61412 23.2892 4.11422 23.7893C4.61432 24.2894 5.29259 24.5703 5.99984 24.5703H13.9998V15.237H12.6665C12.3129 15.237 11.9737 15.0965 11.7237 14.8465C11.4736 14.5964 11.3332 14.2573 11.3332 13.9036C11.3332 13.55 11.4736 13.2109 11.7237 12.9608C11.9737 12.7108 12.3129 12.5703 12.6665 12.5703H13.9998V10.5703C13.9998 9.33264 14.4915 8.14565 15.3667 7.27048C16.2418 6.39531 17.4288 5.90365 18.6665 5.90365H19.4665C19.8201 5.90365 20.1593 6.04412 20.4093 6.29417C20.6594 6.54422 20.7998 6.88336 20.7998 7.23698C20.7998 7.5906 20.6594 7.92974 20.4093 8.17979C20.1593 8.42984 19.8201 8.57031 19.4665 8.57031H18.6665C18.4039 8.57031 18.1438 8.62204 17.9011 8.72255C17.6585 8.82306 17.438 8.97038 17.2523 9.1561C17.0666 9.34182 16.9193 9.56229 16.8187 9.80495C16.7182 10.0476 16.6665 10.3077 16.6665 10.5703V12.5703H19.4665C19.8201 12.5703 20.1593 12.7108 20.4093 12.9608C20.6594 13.2109 20.7998 13.55 20.7998 13.9036C20.7998 14.2573 20.6594 14.5964 20.4093 14.8465C20.1593 15.0965 19.8201 15.237 19.4665 15.237H16.6665V24.5703H21.9998C22.7071 24.5703 23.3854 24.2894 23.8855 23.7893C24.3856 23.2892 24.6665 22.6109 24.6665 21.9036V5.90365C24.6665 5.1964 24.3856 4.51812 23.8855 4.01803C23.3854 3.51793 22.7071 3.23698 21.9998 3.23698H5.99984Z" fill="#182F4F"/>
</svg>
