<svg width="28" height="28" viewBox="0 0 28 28" fill="none" xmlns="http://www.w3.org/2000/svg">
<path fill-rule="evenodd" clip-rule="evenodd" d="M0.666504 5.90365C0.666504 4.48916 1.22841 3.1326 2.2286 2.13241C3.2288 1.13222 4.58535 0.570313 5.99984 0.570312H21.9998C23.4143 0.570313 24.7709 1.13222 25.7711 2.13241C26.7713 3.1326 27.3332 4.48916 27.3332 5.90365V21.9036C27.3332 23.3181 26.7713 24.6747 25.7711 25.6749C24.7709 26.6751 23.4143 27.237 21.9998 27.237H5.99984C4.58535 27.237 3.2288 26.6751 2.2286 25.6749C1.22841 24.6747 0.666504 23.3181 0.666504 21.9036V5.90365ZM5.99984 3.23698C5.29259 3.23698 4.61432 3.51793 4.11422 4.01803C3.61412 4.51812 3.33317 5.1964 3.33317 5.90365V21.9036C3.33317 22.6109 3.61412 23.2892 4.11422 23.7893C4.61432 24.2894 5.29259 24.5703 5.99984 24.5703H21.9998C22.7071 24.5703 23.3854 24.2894 23.8855 23.7893C24.3856 23.2892 24.6665 22.6109 24.6665 21.9036V5.90365C24.6665 5.1964 24.3856 4.51812 23.8855 4.01803C23.3854 3.51793 22.7071 3.23698 21.9998 3.23698H5.99984ZM13.9998 9.90365C12.939 9.90365 11.9216 10.3251 11.1714 11.0752C10.4213 11.8254 9.99984 12.8428 9.99984 13.9036C9.99984 14.9645 10.4213 15.9819 11.1714 16.7321C11.9216 17.4822 12.939 17.9036 13.9998 17.9036C15.0607 17.9036 16.0781 17.4822 16.8283 16.7321C17.5784 15.9819 17.9998 14.9645 17.9998 13.9036C17.9998 12.8428 17.5784 11.8254 16.8283 11.0752C16.0781 10.3251 15.0607 9.90365 13.9998 9.90365ZM7.33317 13.9036C7.33317 12.1355 8.03555 10.4398 9.28579 9.1896C10.536 7.93936 12.2317 7.23698 13.9998 7.23698C15.7679 7.23698 17.4636 7.93936 18.7139 9.1896C19.9641 10.4398 20.6665 12.1355 20.6665 13.9036C20.6665 15.6718 19.9641 17.3674 18.7139 18.6177C17.4636 19.8679 15.7679 20.5703 13.9998 20.5703C12.2317 20.5703 10.536 19.8679 9.28579 18.6177C8.03555 17.3674 7.33317 15.6718 7.33317 13.9036V13.9036ZM21.3332 8.57031C21.8636 8.57031 22.3723 8.3596 22.7474 7.98453C23.1225 7.60945 23.3332 7.10075 23.3332 6.57031C23.3332 6.03988 23.1225 5.53117 22.7474 5.1561C22.3723 4.78103 21.8636 4.57031 21.3332 4.57031C20.8027 4.57031 20.294 4.78103 19.919 5.1561C19.5439 5.53117 19.3332 6.03988 19.3332 6.57031C19.3332 7.10075 19.5439 7.60945 19.919 7.98453C20.294 8.3596 20.8027 8.57031 21.3332 8.57031Z" fill="#182F4F"/>
</svg>
