<svg width="20" height="28" viewBox="0 0 20 28" fill="none" xmlns="http://www.w3.org/2000/svg">
<path d="M18.9377 13.0211C16.6062 12.9953 14.3247 12.2533 12.9999 10.2478C11.791 8.41753 11.5074 6.18783 11.5828 4.04661C11.7515 3.05701 11.8765 2.06078 11.9625 1.06103C12.0669 -0.152919 10.0484 -0.425739 9.80117 0.772209C9.59185 1.78673 9.45437 2.81388 9.39374 3.84718C8.89452 6.44112 8.03385 9.31633 5.87206 11.0415C4.59789 12.0581 2.88638 12.4392 1.36611 12.2143C-0.0143487 12.0103 -0.583396 13.8379 0.781168 14.3094C2.68641 14.9679 4.6152 15.6977 6.04803 17.1592C8.10477 19.2568 8.73944 22.3576 9.02529 25.1597C9.03838 25.7463 9.07906 26.33 9.15014 26.9125C9.21871 27.4747 9.60712 28.0274 10.2505 27.9989C10.823 27.9737 11.3805 27.5207 11.3509 26.9125C11.3224 26.3273 11.2815 25.7431 11.226 25.1597C11.1855 20.714 13.6319 15.0177 18.9379 15.1939C20.3572 15.2094 20.3509 13.0681 18.9377 13.0211ZM10.0586 19.6225C9.53199 18.2044 8.78978 16.8783 7.72244 15.7462C6.99753 14.9772 6.15978 14.3703 5.25937 13.8638C5.92708 13.6026 6.56548 13.247 7.1615 12.7865C8.4246 11.8106 9.34652 10.5315 10.0317 9.12044C10.3362 10.0289 10.758 10.8938 11.3295 11.6733C12.1544 12.7983 13.1936 13.6216 14.3648 14.19C12.3858 15.385 10.9419 17.377 10.0586 19.6225Z" fill="#03ADC6"/>
</svg>
