<svg width="29" height="29" viewBox="0 0 29 29" fill="none" xmlns="http://www.w3.org/2000/svg">
<path fill-rule="evenodd" clip-rule="evenodd" d="M3.66739 14.9036C3.66739 12.662 4.33207 10.4709 5.5774 8.6071C6.82272 6.74335 8.59274 5.29072 10.6636 4.43293C12.7345 3.57514 15.0133 3.3507 17.2117 3.788C19.4102 4.2253 21.4296 5.30469 23.0146 6.88969C24.5996 8.47468 25.679 10.4941 26.1163 12.6925C26.5536 14.891 26.3291 17.1697 25.4714 19.2406C24.6136 21.3115 23.1609 23.0816 21.2972 24.3269C19.4334 25.5722 17.2422 26.2369 15.0007 26.2369C12.8565 26.2407 10.7557 25.6329 8.94472 24.4849C8.78363 24.383 8.60256 24.3168 8.41373 24.2908C8.22489 24.2648 8.03268 24.2796 7.85005 24.3342L4.01005 25.4796L5.45672 22.0969C5.54081 21.9 5.57623 21.6857 5.55998 21.4722C5.54373 21.2586 5.4763 21.0522 5.36338 20.8702C4.25129 19.079 3.66372 17.0119 3.66739 14.9036V14.9036ZM15.0007 0.903564C7.26872 0.903564 1.00072 7.17156 1.00072 14.9036C1.00072 17.3542 1.63139 19.6609 2.74072 21.6676L0.440719 27.0462C0.341172 27.2792 0.310071 27.5358 0.351059 27.7858C0.392048 28.0358 0.503428 28.269 0.672155 28.458C0.840883 28.647 1.05997 28.7841 1.30377 28.853C1.54756 28.922 1.80597 28.9201 2.04872 28.8476L8.04872 27.0582C10.1648 28.2708 12.5619 28.9071 15.0007 28.9036C22.7327 28.9036 29.0007 22.6356 29.0007 14.9036C29.0007 7.17156 22.7327 0.903564 15.0007 0.903564ZM18.0581 17.8129L16.3047 19.0476C15.3387 18.4918 14.4516 17.8088 13.6674 17.0169C12.8254 16.1761 12.0974 15.2284 11.5021 14.1982L12.6154 13.2529C12.8474 13.0561 13.0051 12.7858 13.0623 12.487C13.1195 12.1882 13.0729 11.8789 12.9301 11.6102L11.5114 8.94356C11.417 8.76647 11.2838 8.61296 11.1218 8.4945C10.9598 8.37604 10.7732 8.29568 10.5758 8.2594C10.3784 8.22313 10.1754 8.23188 9.98183 8.28501C9.7883 8.33814 9.60925 8.43427 9.45805 8.56623L9.03672 8.9329C8.02472 9.81556 7.42605 11.2662 7.92205 12.7356C8.72006 15.0597 10.0406 17.1698 11.7821 18.9036C14.1994 21.3209 16.6554 22.2729 18.0927 22.6436C19.2501 22.9409 20.3447 22.5422 21.1167 21.9129L21.9047 21.2702C22.0709 21.1348 22.2019 20.9612 22.2867 20.7643C22.3715 20.5675 22.4075 20.353 22.3918 20.1392C22.3761 19.9255 22.3091 19.7186 22.1965 19.5362C22.0838 19.3538 21.9289 19.2013 21.7447 19.0916L19.5074 17.7582C19.2861 17.6262 19.0314 17.5611 18.774 17.5708C18.5165 17.5805 18.2674 17.6646 18.0567 17.8129H18.0581Z" fill="#182F4F"/>
</svg>
